<?xml version="1.0" standalone="no"?>
<!DOCTYPE svg PUBLIC "-//W3C//DTD SVG 20010904//EN"
 "http://www.w3.org/TR/2001/REC-SVG-20010904/DTD/svg10.dtd">
<svg version="1.0" xmlns="http://www.w3.org/2000/svg"
 width="846.000000pt" height="452.000000pt" viewBox="0 0 846.000000 452.000000"
 preserveAspectRatio="xMidYMid meet">

<g transform="translate(0.000000,452.000000) scale(0.100000,-0.100000)"
fill="#000000" stroke="none">
<path d="M0 2260 l0 -2260 4230 0 4230 0 0 2260 0 2260 -4230 0 -4230 0 0
-2260z m4388 1601 c375 -109 622 -435 623 -822 0 -168 -35 -298 -119 -443
-103 -178 -264 -307 -472 -377 -91 -31 -101 -33 -260 -33 -160 -1 -168 0 -260
31 -143 49 -239 109 -350 222 -105 106 -162 196 -204 322 -74 221 -54 476 52
672 124 231 358 402 607 447 86 15 301 5 383 -19z m-1984 -2033 c3 -7 7 -28
10 -46 l6 -34 -35 31 c-35 30 -38 31 -140 31 l-105 0 0 -110 0 -110 54 0 c39
0 60 6 80 21 l26 20 0 -55 0 -56 -20 20 c-16 16 -33 20 -80 20 l-60 0 0 -110
0 -110 89 0 c95 0 133 9 167 41 l21 20 -6 -38 -6 -38 -195 -3 c-153 -2 -192 0
-182 10 17 17 17 479 0 496 -9 9 31 12 180 12 145 0 194 -3 196 -12z m665 -19
l45 -20 -50 -50 -49 -50 -5 53 -5 53 -47 -1 c-39 0 -54 -6 -79 -30 -115 -109
-98 -305 31 -372 37 -19 57 -23 118 -20 39 2 72 2 72 0 0 -2 -24 -14 -52 -27
-100 -47 -204 -28 -280 51 -97 101 -90 289 15 381 32 28 61 42 122 57 34 8
118 -4 164 -25z m446 -1 c93 -46 137 -113 143 -218 3 -68 1 -80 -25 -130 -99
-188 -363 -187 -457 2 -31 61 -35 156 -11 216 18 43 77 107 118 128 68 36 162
37 232 2z m394 -149 c39 -99 71 -185 71 -190 0 -35 26 15 90 179 l75 187 47 3
46 3 78 -197 c59 -149 80 -192 86 -178 4 10 39 98 77 194 l68 175 64 3 c61 3
63 3 46 -16 -15 -16 -17 -45 -17 -235 0 -118 4 -227 10 -241 l10 -26 -66 0
c-61 0 -64 1 -54 20 7 12 9 94 8 222 l-3 203 -88 -222 c-52 -131 -94 -223
-102 -223 -8 0 -47 88 -96 213 l-84 212 -3 -199 c-2 -138 1 -203 9 -212 9 -12
5 -14 -25 -14 -36 0 -37 0 -22 22 13 19 16 58 16 222 0 117 -4 196 -9 191 -5
-6 -37 -82 -71 -170 -103 -266 -103 -266 -118 -263 -9 2 -49 90 -98 213 l-83
210 -1 -201 c0 -143 3 -203 12 -212 9 -9 3 -12 -27 -12 -30 0 -36 3 -27 12 17
17 17 479 0 496 -9 9 1 12 49 12 l60 0 72 -181z m1361 155 c97 -39 119 -155
44 -230 l-36 -35 27 -21 c35 -27 55 -76 55 -132 0 -27 6 -51 16 -60 14 -15 12
-16 -23 -16 -64 0 -79 18 -85 102 -7 94 -22 108 -119 108 l-69 0 0 -93 c0 -59
4 -97 12 -105 9 -9 -29 -12 -171 -12 -157 0 -182 2 -172 14 9 10 11 82 9 255
l-3 241 237 0 c195 0 245 -3 278 -16z m510 6 c20 -5 45 -16 55 -24 19 -14 18
-17 -27 -63 l-48 -48 0 58 0 57 -44 0 c-87 0 -152 -79 -163 -198 -9 -99 25
-170 100 -213 33 -18 57 -23 112 -23 l70 1 -50 -23 c-150 -70 -317 36 -329
210 -14 193 139 318 324 266z m-3130 -235 c0 -25 0 -25 -95 -25 -95 0 -95 0
-95 25 0 25 0 25 95 25 95 0 95 0 95 -25z m965 -480 l6 -20 9 20 c5 11 17 38
26 60 l16 40 28 -60 c24 -55 28 -58 35 -36 15 48 36 93 41 88 3 -2 -7 -35 -22
-71 -14 -37 -29 -64 -32 -61 -4 3 -16 31 -27 62 l-21 56 -24 -62 c-12 -34 -26
-59 -30 -54 -10 12 -50 114 -49 127 1 12 33 -54 44 -89z m432 -12 c-2 -21 -4
-4 -4 37 0 41 2 58 4 38 2 -21 2 -55 0 -75z m308 98 c3 -6 -10 -7 -32 -4 -50
8 -55 13 -10 13 20 0 38 -4 42 -9z m335 -51 c47 0 49 1 53 33 2 17 4 -2 4 -43
0 -41 -2 -58 -4 -37 l-4 37 -49 0 c-47 0 -49 -1 -53 -32 -2 -18 -4 -1 -4 37 0
39 2 55 4 38 4 -32 6 -33 53 -33z m-422 34 c-2 -12 11 -21 47 -33 42 -13 50
-20 50 -40 0 -13 -7 -26 -15 -29 -12 -4 -13 -2 -2 9 22 23 13 38 -30 50 -52
13 -69 26 -61 45 7 19 15 18 11 -2z m8 -93 c5 -5 20 -11 34 -14 l25 -4 -26 -2
c-14 0 -34 6 -45 14 -10 8 -14 15 -8 15 5 0 14 -4 20 -9z"/>
<path d="M4025 3814 c-291 -61 -521 -257 -610 -522 -23 -70 -51 -210 -42 -218
7 -7 196 14 284 32 182 36 397 132 559 247 48 34 153 125 233 203 l145 141
-84 41 c-122 60 -219 82 -354 81 -61 -1 -120 -3 -131 -5z"/>
<path d="M4507 3515 c-159 -156 -224 -207 -365 -292 -201 -121 -435 -193 -706
-218 l-68 -7 6 -30 c3 -17 6 -41 6 -54 0 -23 2 -24 89 -24 375 0 683 100 965
313 43 33 139 118 213 190 l134 130 -63 64 c-34 35 -65 63 -68 63 -3 -1 -67
-61 -143 -135z"/>
<path d="M4685 3336 c-71 -71 -164 -154 -205 -186 -289 -218 -629 -330 -1000
-330 l-79 0 18 -52 18 -53 209 1 c225 2 321 14 478 59 254 74 444 190 673 411
l113 109 -34 70 c-56 116 -43 118 -191 -29z"/>
<path d="M4830 3123 c-214 -217 -480 -367 -776 -436 -138 -33 -190 -39 -402
-46 l-172 -6 36 -54 37 -54 246 6 c316 9 432 28 636 108 161 62 304 151 463
287 l54 47 -5 95 c-6 96 -14 140 -26 140 -3 -1 -44 -40 -91 -87z"/>
<path d="M4868 2816 c-187 -152 -437 -270 -679 -320 -105 -22 -278 -36 -437
-36 l-133 0 33 -29 c177 -154 453 -219 694 -161 249 59 476 265 559 510 14 40
23 75 21 77 -2 2 -28 -16 -58 -41z"/>
<path d="M3380 1802 c-65 -10 -124 -96 -136 -195 -9 -76 16 -157 65 -209 32
-35 45 -41 88 -45 45 -5 53 -2 86 26 56 50 81 111 81 200 -1 62 -5 85 -27 128
-36 71 -93 105 -157 95z"/>
<path d="M4860 1701 l0 -120 48 -4 47 -3 -47 -2 -48 -2 0 -115 0 -115 48 0
c26 0 53 5 60 12 9 9 12 72 12 223 0 241 -1 245 -78 245 l-42 0 0 -119z"/>
<path d="M5080 1686 l0 -136 54 0 c44 0 60 5 84 25 57 47 61 161 8 213 -20 20
-38 27 -86 30 l-60 4 0 -136z"/>
</g>
</svg>
