<svg xmlns="http://www.w3.org/2000/svg" fill="rgb(242, 129, 35)" viewBox="0 0 640 512"><!--!Font Awesome Free 6.5.2 by @fontawesome - https://fontawesome.com License - https://fontawesome.com/license/free Copyright 2024 Fonticons, Inc.--><path d="M352 288h-16v-88c0-4.4-3.6-8-8-8h-13.6c-4.7 0-9.4 1.4-13.3 4l-15.3 10.2a8 8 0 0 0 -2.2 11.1l8.9 13.3a8 8 0 0 0 11.1 2.2l.5-.3V288h-16c-4.4 0-8 3.6-8 8v16c0 4.4 3.6 8 8 8h64c4.4 0 8-3.6 8-8v-16c0-4.4-3.6-8-8-8zM608 64H32C14.3 64 0 78.3 0 96v320c0 17.7 14.3 32 32 32h576c17.7 0 32-14.3 32-32V96c0-17.7-14.3-32-32-32zM48 400v-64c35.4 0 64 28.7 64 64H48zm0-224v-64h64c0 35.4-28.7 64-64 64zm272 192c-53 0-96-50.2-96-112 0-61.9 43-112 96-112s96 50.1 96 112c0 61.9-43 112-96 112zm272 32h-64c0-35.4 28.7-64 64-64v64zm0-224c-35.4 0-64-28.7-64-64h64v64z"/></svg>